<?xml version="1.0"?>
<svg xmlns="http://www.w3.org/2000/svg" height="512px" viewBox="-45 0 432 432.94551" width="512px" class=""><g><path d="m198.148438 6.105469c105.339843 3.789062 169.796874 117.628906 121 211.058593 0 0-16.652344 41.121094-18.273438 58.5-5.488281 58.941407 19.132812 151.28125 19.132812 151.28125h-144.921874l-17.289063-68.730468s-59.140625.21875-62.949219.332031c-9.34375.273437-18.398437-3.246094-25.101562-9.757813-6.707032-6.511718-10.488282-15.457031-10.488282-24.804687v-51.070313h-45.871093c-2.273438 0-4.40625-1.117187-5.695313-2.992187-1.289062-1.871094-1.574218-4.261719-.765625-6.386719l29.859375-78.191406s.0625-29.476562.242188-32.308594c4.566406-83.164062 73.824218-147.980468 157.109375-147.03125 1.339843.023438 2.679687.050782 4.011719.101563zm91.738281 185.378906 11.210937-29.050781-12.992187-11.21875c1.277343-9.832032 1.015625-19.804688-.769531-29.558594l12.492187-11.980469-12.492187-28.539062-17.328126 1.269531c-5.90625-7.984375-13.148437-14.882812-21.410156-20.390625l.507813-17.332031-29.046875-11.207032-11.210938 13c-9.835937-1.28125-19.8125-1.023437-29.570312.757813l-11.980469-12.488281-28.539063 12.488281 1.269532 17.332031c-7.980469 5.90625-14.878906 13.148438-20.390625 21.410156l-17.328125-.511718-11.210938 29.050781 13 11.21875c-1.277344 9.835937-1.023437 19.804687.757813 29.5625l-12.488281 11.980469 12.488281 28.539062 17.332031-1.269531c5.90625 7.980469 13.152344 14.878906 21.410156 20.386719l-.511718 17.332031 29.0625 11.210937 11.207031-13c9.835937 1.277344 19.808593 1.019532 29.5625-.761718l11.980469 12.492187 28.539062-12.492187-1.269531-17.328125c7.980469-5.910157 14.878906-13.152344 20.390625-21.410157zm0 0" fill="#f8ec7d" data-original="#F8EC7D" class="" style="fill:#72D2EE" data-old_color="#72d2ee"/><path d="m301.097656 162.433594-11.210937 29.050781-17.328125-.507813c-5.511719 8.257813-12.410156 15.5-20.390625 21.410157l1.269531 17.328125-28.539062 12.492187-11.980469-12.492187c-9.753907 1.78125-19.726563 2.039062-29.5625.761718l-11.207031 13-29.0625-11.210937.511718-17.332031c-8.257812-5.507813-15.503906-12.40625-21.410156-20.386719l-17.332031 1.269531-12.488281-28.539062 12.488281-11.980469c-1.78125-9.757813-2.035157-19.726563-.757813-29.5625l-13-11.21875 11.210938-29.050781 17.328125.511718c5.511719-8.261718 12.410156-15.503906 20.390625-21.410156l-1.269532-17.332031 28.539063-12.488281 11.980469 12.488281c9.757812-1.78125 19.734375-2.039063 29.570312-.757813l11.210938-13 29.046875 11.207032-.507813 17.332031c8.261719 5.507813 15.503906 12.40625 21.410156 20.390625l17.328126-1.269531 12.492187 28.539062-12.492187 11.980469c1.785156 9.753906 2.046874 19.726562.769531 29.558594zm-52-23.957032c0-29.273437-23.730468-53-53-53-29.273437 0-53 23.726563-53 53 0 29.269532 23.726563 53 53 53 29.269532 0 53-23.730468 53-53zm0 0" fill="#e48e66" data-original="#E48E66" class="" style="fill:#F5665C" data-old_color="#f5665c"/><path d="m249.097656 138.476562c0 29.269532-23.730468 53-53 53-29.273437 0-53-23.730468-53-53 0-29.273437 23.726563-53 53-53 29.269532 0 53 23.726563 53 53zm0 0" fill="#6fe3ff" data-original="#6FE3FF" class="active-path" style="fill:#72D2EE" data-old_color="#72d2ee"/><g fill="#63316d"><path d="m13.386719 278.914062h39.871093v45.070313c0 10.96875 4.4375 21.46875 12.304688 29.109375 7.871094 7.640625 18.496094 11.769531 29.457031 11.449219 2.742188-.078125 36.875-.226563 58.101563-.308594l16.144531 64.175781c.671875 2.664063 3.066406 4.535156 5.816406 4.535156h144.925781c1.863282 0 3.621094-.863281 4.757813-2.34375 1.136719-1.476562 1.519531-3.398437 1.042969-5.199218-.246094-.914063-24.28125-92-18.957032-149.179688 1.457032-15.613281 16.351563-53.046875 17.753907-56.546875 24.003906-45.933593 22.65625-100.992187-3.558594-145.699219-25.832031-44.417968-71.695313-72.03125-122.675781-73.867187-1.375-.0507812-2.757813-.0820312-4.167969-.0976562-86.476563-.9882808-158.394531 66.2929692-163.164063 152.6445312-.171874 2.699219-.234374 25.667969-.25 31.578125l-29.464843 77.160156c-1.519531 3.96875-.984375 8.429688 1.425781 11.929688s6.386719 5.589843 10.636719 5.589843zm-.855469-13.238281 29.863281-78.191406c.257813-.679687.390625-1.398437.390625-2.128906.023438-11.324219.105469-30.011719.234375-32 4.390625-79.945313 70.964844-142.253907 151.027344-141.351563 1.300781.019532 2.589844.050782 3.882813.101563 46.847656 1.683593 88.992187 27.070312 112.742187 67.90625 24.1875 41.242187 25.378906 92.046875 3.15625 134.378906-.089844.171875-.171875.347656-.242187.527344-.695313 1.710937-17 42.144531-18.683594 60.195312-2.328125 24.980469.222656 58.410157 7.574218 99.359375 3.609376 20.097656 7.558594 37.171875 9.832032 46.476563h-132.542969l-16.148437-64.195313c-.671876-2.667968-3.070313-4.535156-5.820313-4.535156h-.023437c-2.417969.007812-59.257813.222656-63.113282.332031-7.71875.222657-15.199218-2.6875-20.738281-8.066406-5.539063-5.382813-8.664063-12.773437-8.664063-20.496094v-51.074219c0-3.3125-2.683593-6-6-6h-45.871093c-.304688.007813-.589844-.144531-.753907-.398437-.179687-.242187-.214843-.5625-.101562-.839844zm0 0" data-original="#000000" class="" style="fill:#000000"/><path d="m196.097656 197.476562c32.585938 0 59-26.417968 59-59 0-32.585937-26.414062-59-59-59-32.585937 0-59 26.414063-59 59 .035156 32.570313 26.429688 58.960938 59 59zm0-106c25.957032 0 47 21.042969 47 47 0 25.957032-21.042968 47-47 47-25.957031 0-47-21.042968-47-47 .027344-25.945312 21.054688-46.972656 47-47zm0 0" data-original="#000000" class="" style="fill:#000000"/><path d="m97.777344 128.207031c-.8125 8.3125-.597656 16.691407.644531 24.949219l-10.207031 9.789062c-1.816406 1.742188-2.355469 4.429688-1.347656 6.734376l12.492187 28.542968c1.019531 2.332032 3.398437 3.765625 5.9375 3.578125l14.105469-1.035156c5.21875 6.546875 11.308594 12.347656 18.097656 17.246094l-.410156 14.078125c-.078125 2.542968 1.460937 4.859375 3.835937 5.773437l29.058594 11.210938c2.367187.910156 5.046875.238281 6.703125-1.679688l9.136719-10.601562c8.3125.8125 16.691406.597656 24.949219-.640625l9.789062 10.203125c1.742188 1.816406 4.429688 2.351562 6.734375 1.34375l28.539063-12.488281c2.332031-1.019532 3.765624-3.398438 3.578124-5.933594l-1.027343-14.101563c6.546875-5.21875 12.347656-11.308593 17.246093-18.101562l14.078126.414062c2.542968.082031 4.863281-1.457031 5.773437-3.835937l11.210937-29.050782c.910157-2.363281.242188-5.042968-1.675781-6.699218l-10.601562-9.148438c.8125-8.3125.59375-16.695312-.644531-24.953125l10.199218-9.789062c1.816406-1.738281 2.351563-4.429688 1.34375-6.734375l-12.492187-28.539063c-1.019531-2.332031-3.398438-3.765625-5.933594-3.578125l-14.09375 1.023438c-5.214844-6.546875-11.304687-12.347656-18.101563-17.242188l.414063-14.078125c.078125-2.546875-1.460937-4.859375-3.835937-5.777343l-29.054688-11.210938c-2.367188-.910156-5.046875-.238281-6.703125 1.679688l-9.140625 10.601562c-8.3125-.8125-16.695312-.597656-24.953125.640625l-9.796875-10.203125c-1.738281-1.816406-4.429688-2.351562-6.734375-1.34375l-28.539063 12.488281c-2.332031 1.019531-3.765624 3.398438-3.578124 5.933594l1.035156 14.109375c-6.546875 5.21875-12.351563 11.308594-17.246094 18.097656l-14.078125-.414062c-2.542969-.074219-4.859375 1.464844-5.777344 3.839844l-11.210937 29.050781c-.910156 2.363281-.238282 5.042969 1.679687 6.699219zm8.601562-36.621093 13.085938.386718c2.066406.0625 4.019531-.945312 5.167968-2.667968 5.121094-7.683594 11.539063-14.425782 18.96875-19.917969 1.652344-1.222657 2.5625-3.210938 2.414063-5.261719l-.960937-13.097656 20.8125-9.109375 9.082031 9.464843c1.394531 1.457032 3.425781 2.113282 5.40625 1.75 9.148437-1.671874 18.5-1.910156 27.722656-.710937 2 .257813 3.996094-.503906 5.316406-2.03125l8.449219-9.800781 21.144531 8.160156-.386719 13.082031c-.058593 2.070313.949219 4.023438 2.667969 5.167969 7.6875 5.125 14.425781 11.542969 19.914063 18.976562 1.226562 1.652344 3.210937 2.5625 5.261718 2.414063l13.101563-.960937 9.109375 20.816406-9.46875 9.082031c-1.457031 1.394531-2.113281 3.429687-1.746094 5.414063 1.671875 9.140624 1.917969 18.488281.71875 27.707031-.257812 1.996093.503906 3.992187 2.027344 5.308593l9.796875 8.460938-8.160156 21.148438-13.085938-.386719c-2.066406-.050781-4.011719.957031-5.167969 2.667969-5.125 7.683593-11.542968 14.425781-18.96875 19.917968-1.652343 1.222656-2.566406 3.210938-2.414062 5.261719l.960938 13.097656-20.816407 9.109375-9.082031-9.464844c-1.394531-1.457031-3.425781-2.113281-5.40625-1.75-9.144531 1.671876-18.492188 1.910157-27.707031.710938-2.003907-.261719-4 .503906-5.320313 2.03125l-8.449218 9.800781-21.152344-8.160156.382812-13.085937c.0625-2.066407-.945312-4.019532-2.667968-5.164063-7.683594-5.125-14.425782-11.546875-19.917969-18.972656-1.226563-1.648438-3.210938-2.558594-5.261719-2.410157l-13.097656.957032-9.109375-20.8125 9.46875-9.082032c1.453125-1.394531 2.109375-3.425781 1.746093-5.40625-1.671874-9.144531-1.910156-18.492187-.710937-27.710937.261719-2-.503906-3.996094-2.03125-5.316406l-9.796875-8.457031zm0 0" data-original="#000000" class="" style="fill:#000000"/></g></g> </svg>
