<?xml version="1.0"?>
<svg xmlns="http://www.w3.org/2000/svg" height="512px" viewBox="0 0 472 472" width="512px" class=""><g><path d="m72 0v456h208v-456zm0 0" fill="#b4b3b8" data-original="#B4B3B8" class="" style="fill:#A2DDF1" data-old_color="#a2ddf1"/><path d="m192 192h208v272h-208zm0 0" fill="#67676a" data-original="#67676A" class="" style="fill:#A2DDF1" data-old_color="#a2ddf1"/><path d="m144 368h-16c-8.835938 0-16 7.164062-16 16v80h48v-80c0-8.835938-7.164062-16-16-16zm0 0" fill="#a0815c" data-original="#A0815C" class="" style="fill:#F0655C" data-old_color="#f0655c"/><path d="m128 400c0-8.835938 7.164062-16 16-16h16c0-8.835938-7.164062-16-16-16h-16c-8.835938 0-16 7.164062-16 16v80h16zm0 0" fill="#604d37" data-original="#604D37" class=""/><path d="m184 80h64v16h-64zm0 0" fill="#616063" data-original="#616063" class="" style="fill:#F0655C" data-old_color="#f0655c"/><path d="m184 160h64v16h-64zm0 0" fill="#616063" data-original="#616063" class="" style="fill:#F0655C" data-old_color="#f0655c"/><path d="m104 160h64v16h-64zm0 0" fill="#616063" data-original="#616063" class="" style="fill:#F0655C" data-old_color="#f0655c"/><path d="m104 80h64v16h-64zm0 0" fill="#616063" data-original="#616063" class="" style="fill:#F0655C" data-old_color="#f0655c"/><g fill="#4e4d4f"><path d="m224 272h64v16h-64zm0 0" data-original="#000000" class="active-path" style="fill:#F0655C" data-old_color="#f0655c"/><path d="m223.664062 432.335938h64v16h-64zm0 0" data-original="#000000" class="active-path" style="fill:#F0655C" data-old_color="#f0655c"/><path d="m223.664062 352.335938h64v16h-64zm0 0" data-original="#000000" class="active-path" style="fill:#F0655C" data-old_color="#f0655c"/><path d="m304 272h64v16h-64zm0 0" data-original="#000000" class="active-path" style="fill:#F0655C" data-old_color="#f0655c"/><path d="m303.664062 432.335938h64v16h-64zm0 0" data-original="#000000" class="active-path" style="fill:#F0655C" data-old_color="#f0655c"/><path d="m303.664062 352.335938h64v16h-64zm0 0" data-original="#000000" class="active-path" style="fill:#F0655C" data-old_color="#f0655c"/></g><path d="m0 456h472v16h-472zm0 0" fill="#717171" data-original="#717171" class=""/><path d="m104 240h64v16h-64zm0 0" fill="#616063" data-original="#616063" class="" style="fill:#F0655C" data-old_color="#f0655c"/><path d="m104 320h64v16h-64zm0 0" fill="#616063" data-original="#616063" class="" style="fill:#F0655C" data-old_color="#f0655c"/><path d="m112 32v48h48v-48zm0 0" fill="#90a1ae" data-original="#90A1AE" class=""/><path d="m128 48h32v32h-32zm0 0" fill="#cee6f8" data-original="#CEE6F8" class="" style="fill:#CEE6F8"/><path d="m112 192v48h48v-48zm0 0" fill="#90a1ae" data-original="#90A1AE" class=""/><path d="m128 208h32v32h-32zm0 0" fill="#cee6f8" data-original="#CEE6F8" class="" style="fill:#CEE6F8"/><path d="m112 272v48h48v-48zm0 0" fill="#90a1ae" data-original="#90A1AE" class=""/><path d="m128 288h32v32h-32zm0 0" fill="#cee6f8" data-original="#CEE6F8" class="" style="fill:#CEE6F8"/><path d="m192 32v48h48v-48zm0 0" fill="#90a1ae" data-original="#90A1AE" class=""/><path d="m208 48h32v32h-32zm0 0" fill="#cee6f8" data-original="#CEE6F8" class="" style="fill:#CEE6F8"/><path d="m112 112v48h48v-48zm0 0" fill="#90a1ae" data-original="#90A1AE" class=""/><path d="m128 128h32v32h-32zm0 0" fill="#cee6f8" data-original="#CEE6F8" class="" style="fill:#CEE6F8"/><path d="m192 112v48h48v-48zm0 0" fill="#90a1ae" data-original="#90A1AE" class=""/><path d="m208 128h32v32h-32zm0 0" fill="#cee6f8" data-original="#CEE6F8" class="" style="fill:#CEE6F8"/><path d="m232 224v48h48v-48zm0 0" fill="#90a1ae" data-original="#90A1AE" class=""/><path d="m248 240h32v32h-32zm0 0" fill="#cee6f8" data-original="#CEE6F8" class="" style="fill:#CEE6F8"/><path d="m312 224v48h48v-48zm0 0" fill="#90a1ae" data-original="#90A1AE" class=""/><path d="m328 240h32v32h-32zm0 0" fill="#cee6f8" data-original="#CEE6F8" class="" style="fill:#CEE6F8"/><path d="m232 304v48h48v-48zm0 0" fill="#90a1ae" data-original="#90A1AE" class=""/><path d="m248 320h32v32h-32zm0 0" fill="#cee6f8" data-original="#CEE6F8" class="" style="fill:#CEE6F8"/><path d="m312 304v48h48v-48zm0 0" fill="#90a1ae" data-original="#90A1AE" class=""/><path d="m328 320h32v32h-32zm0 0" fill="#cee6f8" data-original="#CEE6F8" class="" style="fill:#CEE6F8"/><path d="m232 392v48h48v-48zm0 0" fill="#90a1ae" data-original="#90A1AE" class=""/><path d="m248 408h32v32h-32zm0 0" fill="#cee6f8" data-original="#CEE6F8" class="" style="fill:#CEE6F8"/><path d="m312 392v48h48v-48zm0 0" fill="#90a1ae" data-original="#90A1AE" class=""/><path d="m328 408h32v32h-32zm0 0" fill="#cee6f8" data-original="#CEE6F8" class="" style="fill:#CEE6F8"/></g> </svg>
