<svg height="384pt" viewBox="0 0 384 384" width="384pt" xmlns="http://www.w3.org/2000/svg"><path d="m368 192h-64c0-61.839844-50.160156-112-112-112v-64c92.800781 0 176 83.199219 176 176zm0 0" fill="#ff8a65"/><path d="m304 192h64c0 92.800781-83.199219 176-176 176v-64c61.839844 0 112-50.160156 112-112zm0 0" fill="#4dd0e1"/><path d="m304 192c0 61.855469-50.144531 112-112 112s-112-50.144531-112-112 50.144531-112 112-112 112 50.144531 112 112zm0 0" fill="#ff7043"/><path d="m192 304v64c-92.800781 0-176-83.199219-176-176h64c0 61.839844 50.160156 112 112 112zm0 0" fill="#ff8a65"/><path d="m192 16v64c-61.839844 0-112 50.160156-112 112h-64c0-92.800781 83.199219-176 176-176zm0 0" fill="#4dd0e1"/><path d="m192 0c-102.28125 0-192 89.71875-192 192s89.71875 192 192 192 192-89.71875 192-192-89.71875-192-192-192zm159.054688 176h-32.167969c-7.253907-57.785156-53.101563-103.632812-110.886719-110.886719v-32.167969c71.910156 8.277344 134.777344 71.144532 143.054688 143.054688zm-159.054688 112c-52.9375 0-96-43.0625-96-96s43.0625-96 96-96 96 43.0625 96 96-43.0625 96-96 96zm-16-255.054688v32.167969c-57.785156 7.253907-103.632812 53.101563-110.886719 110.886719h-32.167969c8.277344-71.910156 71.144532-134.777344 143.054688-143.054688zm-143.054688 175.054688h32.167969c7.253907 57.785156 53.101563 103.632812 110.886719 110.886719v32.167969c-71.910156-8.277344-134.777344-71.144532-143.054688-143.054688zm175.054688 143.054688v-32.167969c57.785156-7.253907 103.632812-53.101563 110.886719-110.886719h32.167969c-8.277344 71.910156-71.144532 134.777344-143.054688 143.054688zm0 0" fill="#012e52"/></svg>