<?xml version="1.0"?>
<svg xmlns="http://www.w3.org/2000/svg" xmlns:xlink="http://www.w3.org/1999/xlink" version="1.1" id="Capa_1" x="0px" y="0px" viewBox="0 0 512 512" style="enable-background:new 0 0 512 512;" xml:space="preserve" width="512px" height="512px" class=""><g><g>
	<g>
		<path d="M437.02,74.981C388.667,26.628,324.38,0,256,0S123.333,26.628,74.98,74.981C26.629,123.333,0,187.62,0,256    s26.629,132.667,74.98,181.019C123.333,485.372,187.62,512,256,512s132.667-26.628,181.02-74.981    C485.371,388.667,512,324.38,512,256S485.371,123.333,437.02,74.981z M491.76,245.635h-69.091v0.001    c-2.361-38.37-17.734-73.272-41.755-100.345l48.83-48.83C466.193,136.124,489.267,188.253,491.76,245.635z M266.202,20.234    c57.478,2.458,109.693,25.564,149.401,62.082l-48.828,48.829c-27.12-24.088-62.108-39.494-100.573-41.824V20.234z M246.202,20.219    v69.076c-38.602,2.245-73.722,17.659-100.931,41.809L96.442,82.275C136.237,45.696,188.587,22.585,246.202,20.219z M82.299,96.416    l48.829,48.829c-24.045,27.079-39.434,61.999-41.797,100.391H20.24C22.734,188.231,45.826,136.084,82.299,96.416z M20.213,265.636    h15.175c1.721,32.403,10.078,64.623,24.313,93.57c1.739,3.537,5.289,5.589,8.981,5.589c1.481,0,2.986-0.331,4.405-1.029    c4.956-2.438,6.998-8.431,4.561-13.387c-12.896-26.223-20.52-55.382-22.222-84.744h33.858    c2.212,38.688,17.654,73.886,41.86,101.139l-48.828,48.829C45.679,375.765,22.542,323.337,20.213,265.636z M246.202,491.78    c-57.606-2.365-109.948-25.469-149.741-62.038l48.83-48.829c27.206,24.139,62.318,39.547,100.911,41.791V491.78z M109,256    c0-40.213,16.236-76.7,42.49-103.267c0.228-0.191,0.452-0.388,0.666-0.602c0.213-0.213,0.409-0.436,0.599-0.663    C179.32,125.227,215.799,109,256,109c81.056,0,147,65.944,147,147s-65.944,147-147,147S109,337.056,109,256z M266.201,491.766    v-69.087h0.001c38.456-2.329,73.437-17.729,100.553-41.807l48.828,48.829C375.877,466.209,323.67,489.308,266.201,491.766z     M429.726,415.558l-48.829-48.829c24.183-27.247,39.608-62.427,41.819-101.093h69.072    C489.458,323.315,466.339,375.725,429.726,415.558z" data-original="#000000" class="active-path" data-old_color="#3eb6cb" fill="#3eb6cb"/>
	</g>
</g><g>
	<g>
		<path d="M94.403,378.855c-0.23-0.384-0.496-0.767-0.776-1.117c-3.449-4.311-9.741-5.013-14.056-1.562    c-4.114,3.291-4.939,9.169-2.012,13.448c1.916,2.823,5.059,4.377,8.278,4.377c1.751,0,3.524-0.46,5.135-1.427    C95.709,389.733,97.244,383.591,94.403,378.855z" data-original="#000000" class="active-path" data-old_color="#3eb6cb" fill="#3eb6cb"/>
	</g>
</g><g>
	<g>
		<path d="M257.114,364.997c-0.021,0-0.042,0-0.063,0l-0.317,0.002c-5.522,0.034-9.973,4.539-9.938,10.062    c0.034,5.502,4.505,9.938,9.999,9.938c0.021,0,0.042,0,0.063,0l0.317-0.002c5.522-0.034,9.973-4.539,9.938-10.062    C267.079,369.434,262.608,364.997,257.114,364.997z" data-original="#000000" class="active-path" data-old_color="#3eb6cb" fill="#3eb6cb"/>
	</g>
</g><g>
	<g>
		<path d="M346.472,164.04c-24.563-24.168-57.101-37.321-91.524-37.046c-71.132,0.575-128.533,58.914-127.959,130.046    c0.218,26.847,8.599,52.518,24.236,74.235c15.285,21.227,36.313,37.141,60.813,46.022c1.126,0.408,2.276,0.602,3.407,0.602    c4.09,0,7.928-2.528,9.402-6.595c1.882-5.192-0.801-10.927-5.993-12.81c-42.618-15.449-71.499-56.286-71.865-101.617    c-0.486-60.104,48.017-109.398,108.121-109.885c29.088-0.248,56.58,10.881,77.335,31.303    c20.754,20.421,32.313,47.703,32.549,76.818c0.367,45.332-27.85,86.63-70.213,102.766c-5.161,1.966-7.751,7.744-5.785,12.905    c1.965,5.161,7.742,7.749,12.904,5.786c24.354-9.276,45.122-25.528,60.062-47c15.285-21.968,23.249-47.771,23.032-74.619    C384.714,220.495,371.034,188.208,346.472,164.04z" data-original="#000000" class="active-path" data-old_color="#3eb6cb" fill="#3eb6cb"/>
	</g>
</g><g>
	<g>
		<path d="M324.751,302h-34.833c19.343-18.207,44.833-46.816,44.833-71.148c0-22.526-18.326-40.852-40.853-40.852    c-22.525,0-40.852,18.326-40.852,40.852c0,5.523,4.478,10,10,10c5.522,0,10-4.477,10-10c0-11.498,9.354-20.852,20.852-20.852    s20.853,9.354,20.853,20.852c0,20.545-35.481,55.837-57.844,73.255c-3.372,2.623-4.705,7.098-3.319,11.139    c1.387,4.041,5.188,6.754,9.459,6.754h61.704c5.522,0,10-4.477,10-10S330.273,302,324.751,302z" data-original="#000000" class="active-path" data-old_color="#3eb6cb" fill="#3eb6cb"/>
	</g>
</g><g>
	<g>
		<path d="M225.47,255.998l17.009-17.009c3.908-3.906,3.908-10.238,0.002-14.143c-3.906-3.905-10.236-3.905-14.143,0l-17.009,17.009    l-17.009-17.009c-3.906-3.905-10.236-3.905-14.143,0c-3.905,3.905-3.905,10.237,0,14.143l17.009,17.009l-17.009,17.009    c-3.905,3.905-3.905,10.237,0,14.143c1.953,1.953,4.512,2.929,7.071,2.929s5.118-0.976,7.071-2.929l17.009-17.009l17.009,17.009    c1.953,1.953,4.512,2.929,7.071,2.929c2.559,0,5.118-0.976,7.071-2.929c3.905-3.905,3.905-10.237,0-14.143L225.47,255.998z" data-original="#000000" class="active-path" data-old_color="#3eb6cb" fill="#3eb6cb"/>
	</g>
</g></g> </svg>
