<svg height="489pt" viewBox="0 -44 489.888 489" width="489pt" xmlns="http://www.w3.org/2000/svg"><path d="m32 32.445312h16v16h-16zm0 0"/><path d="m64 32.445312h16v16h-16zm0 0"/><path d="m96 32.445312h16v16h-16zm0 0"/><path d="m489.886719 232.445312-39.152344-19.578124 20.203125-40.398438-38.9375 9.726562v-34.695312l-32 16v-147.054688c0-8.824218-7.175781-16-16-16h-368c-8.824219 0-16 7.175782-16 16v384h400v-99.058593l32 16v-34.695313l38.9375 9.730469-20.203125-40.402344zm-105.886719-216v48h-368v-48zm0 368h-368v-304h368v91.054688l-25.886719 12.945312h-22.113281v-16h-24v-21.191406c0-10.371094-8.441406-18.808594-18.808594-18.808594-5.742187 0-11.09375 2.566407-14.6875 7.054688l-26.351562 32.945312h-40.679688c-40.410156 0-79.878906 11.320313-114.144531 32.742188-10.847656 6.777344-17.328125 18.457031-17.328125 31.257812 0 12.796876 6.480469 24.480469 17.328125 31.253907 34.265625 21.425781 73.734375 32.746093 114.144531 32.746093h40.679688l26.351562 32.941407c3.59375 4.488281 8.945313 7.058593 14.6875 7.058593 10.367188 0 18.808594-8.441406 18.808594-18.808593v-21.191407h24v-16h22.113281l25.886719 12.941407zm-16-160h.609375c12.109375 0 23.871094 3.132813 34.320313 9.101563-10.097657 8-22.128907 12.921875-34.929688 14.386719zm-156.527344 56c-9.234375 0-18.410156-.648437-27.472656-1.914062v-38.085938h-16v35.152344c-21.910156-4.898437-42.953125-13.425781-62.191406-25.457031-6.144532-3.847656-9.808594-10.457031-9.808594-17.695313 0-7.242187 3.664062-13.847656 9.808594-17.699218 19.238281-12.03125 40.28125-20.558594 62.191406-25.453125v35.152343h16v-38.089843c9.0625-1.261719 18.238281-1.910157 27.472656-1.910157h108.527344v18.238282l-34.953125 11.648437c-7.800781 2.609375-13.046875 9.886719-13.046875 18.113281 0 8.222657 5.246094 15.503907 13.054688 18.117188l34.945312 11.640625v18.242187zm84.527344 16v21.191407c0 2.40625-3.503906 3.632812-5 1.75l-18.351562-22.941407zm0-128h-23.351562l18.351562-22.945312c1.496094-1.878906 5-.648438 5 1.753906zm24 51.09375v25.808594l-29.871094-9.960937c-1.273437-.429688-2.128906-1.605469-2.128906-2.941407 0-1.335937.855469-2.511718 2.121094-2.945312zm16-19.09375h16v64h-16zm80 61.75v29.304688l-48-24v-3.449219c19.753906-1.824219 38.078125-10.375 52.296875-24.582031l8.253906-8.28125-12.648437-8.421875c-14.046875-9.371094-30.398438-14.320313-47.285156-14.320313h-.617188v-11.058593l48-24v29.304687l25.0625-6.269531-11.796875 23.597656 24.847656 12.425781-24.847656 12.421876 11.796875 23.601562zm0 0"/><path d="m32 96.445312h160v16h-160zm0 0"/><path d="m120 128.445312h72v16h-72zm0 0"/><path d="m32 128.445312h72v16h-72zm0 0"/><path d="m32 160.445312h80v16h-80zm0 0"/><path d="m32 352.445312h160v16h-160zm0 0"/><path d="m120 320.445312h72v16h-72zm0 0"/><path d="m32 320.445312h72v16h-72zm0 0"/><path d="m32 288.445312h80v16h-80zm0 0"/></svg>