<?xml version="1.0" encoding="iso-8859-1"?>
<!-- Generator: Adobe Illustrator 19.0.0, SVG Export Plug-In . SVG Version: 6.00 Build 0)  -->
<svg version="1.1" id="Capa_1" xmlns="http://www.w3.org/2000/svg" xmlns:xlink="http://www.w3.org/1999/xlink" x="0px" y="0px"
	 viewBox="0 0 60.001 60.001" style="enable-background:new 0 0 60.001 60.001;" xml:space="preserve">
<g>
	<g>
		<path d="M51.969,14.919c-2.507-4.776-7.641-7.082-12.315-8.193C38.432,2.756,34.742,0,30.586,0c-4.033,0-7.689,2.645-8.989,6.458
			c-5.05,0.986-10.976,3.261-13.592,8.478c-1.447,2.884-1.427,6.568,0.056,10.11c0.931,2.225,3.944,9.223,7.939,16.516
			c-3.944,1.829-7.655,7.008-6.699,11.425c0.614,2.839,2.662,5.27,5.345,6.343c1.118,0.448,2.284,0.671,3.443,0.671
			c1.194,0,2.382-0.237,3.503-0.711c0.874-0.37,1.495-1.119,1.705-2.057c0.214-0.955-0.046-1.958-0.673-2.658l-0.025-0.029
			c-0.847-0.947-2.182-1.244-3.402-0.758c-0.831,0.331-1.746,0.277-2.575-0.152c-0.664-0.345-1.188-0.988-1.403-1.722
			c-0.446-1.53,1.958-4.417,3.459-4.976c0.117-0.044,0.217-0.119,0.328-0.176c2.932,4.783,6.183,9.225,9.43,11.999
			c0.447,0.382,1.048,0.573,1.649,0.573c0.602,0,1.203-0.191,1.649-0.573c3.178-2.715,6.341-7.015,9.226-11.741
			c1.504,0.707,3.704,3.423,3.276,4.894c-0.214,0.734-0.739,1.377-1.403,1.722c-0.829,0.428-1.744,0.483-2.574,0.152
			c-1.22-0.486-2.556-0.188-3.405,0.761c-0.649,0.727-0.909,1.73-0.695,2.684c0.21,0.938,0.832,1.688,1.705,2.057
			c1.122,0.474,2.309,0.711,3.503,0.711c1.16,0,2.326-0.224,3.443-0.671c2.683-1.074,4.73-3.504,5.345-6.343
			c0.915-4.228-2.434-9.143-6.209-11.164c3.517-6.475,6.381-12.969,7.974-16.776C53.433,21.432,53.451,17.741,51.969,14.919z
			 M30.586,2c2.764,0,5.271,1.544,6.568,3.907c-2.807-0.458-5.195-0.527-6.386-0.527c-0.4,0-0.666,0.008-0.766,0.012
			c-0.351-0.012-2.745-0.065-5.891,0.343C25.441,3.475,27.91,2,30.586,2z M13.299,52.473c0.37,1.268,1.245,2.338,2.403,2.938
			c1.331,0.69,2.875,0.774,4.234,0.235c0.432-0.171,0.892-0.08,1.171,0.233l0.002,0.003c0.22,0.246,0.308,0.588,0.235,0.914
			c-0.04,0.176-0.162,0.496-0.533,0.653c-1.72,0.728-3.646,0.736-5.424,0.025c-2.074-0.831-3.657-2.711-4.133-4.91
			c-0.739-3.416,2.49-7.833,5.709-9.246c0.332,0.585,0.668,1.168,1.009,1.747C15.861,45.857,12.44,49.523,13.299,52.473z
			 M48.201,52.564c-0.476,2.198-2.059,4.079-4.133,4.91c-1.776,0.71-3.703,0.702-5.424-0.025c-0.371-0.157-0.493-0.477-0.533-0.653
			c-0.073-0.326,0.015-0.667,0.238-0.917c0.186-0.208,0.451-0.318,0.735-0.318c0.143,0,0.291,0.028,0.436,0.086
			c1.36,0.541,2.903,0.455,4.234-0.235c1.158-0.6,2.033-1.67,2.403-2.938c0.793-2.723-2.061-6.057-4.167-7.176
			c0.035-0.06,0.069-0.122,0.104-0.182c0.272-0.466,0.54-0.934,0.806-1.404c0.027-0.049,0.055-0.096,0.083-0.144
			C46.047,45.197,48.901,49.333,48.201,52.564z M50.076,24.273c-1.591,3.8-4.462,10.318-7.965,16.757l-0.006-0.002l-0.421,0.762
			c-0.644,1.164-1.302,2.31-1.957,3.405l-0.47,0.787l0.004,0.003c-2.779,4.554-5.806,8.676-8.826,11.256
			c-0.151,0.128-0.55,0.128-0.701,0c-3.302-2.821-6.632-7.49-9.608-12.464c-0.6-1.003-1.186-2.02-1.758-3.041
			c-4.237-7.577-7.496-15.145-8.465-17.461c-1.257-3.003-1.298-6.08-0.113-8.441c3.856-7.688,16.821-8.112,19.682-8.112
			c0.337,0,0.534,0.006,0.559,0.006c0.159-0.002,15.615-0.545,20.166,8.122C51.402,18.142,51.358,21.212,50.076,24.273z"/>
		<path d="M30.732,10.716c-0.327,0-0.527,0.006-0.568,0.008l-0.132,0.007l-0.169-0.005c-0.042-0.002-0.224-0.007-0.52-0.007
			c-1.395,0-13.722,0.181-16.871,6.459c-0.779,1.556-0.705,3.775,0.2,5.937c3.252,7.773,9.689,21.906,16.249,29.217
			c0.296,0.33,0.72,0.52,1.164,0.52l0,0c0.443,0,0.868-0.189,1.164-0.519c4.823-5.364,10.077-14.921,16.06-29.217
			c0.934-2.235,1.019-4.375,0.233-5.872C45.015,12.431,37.202,10.716,30.732,10.716z M29.086,18c-1.254-0.637-2.793-1-4-1
			c-3.309,0-6,2.691-6,6s2.691,6,6,6c0.552,0,1-0.448,1-1s-0.448-1-1-1c-2.206,0-4-1.794-4-4s1.794-4,4-4
			c1.277,0,3.176,0.596,4,1.395v29.021c-5.903-7.421-11.587-19.948-14.568-27.073c-0.672-1.607-0.771-3.243-0.257-4.268
			c2.084-4.156,10.46-5.309,14.825-5.351V18z M45.464,22.344C40.2,34.922,35.371,44.008,31.086,49.417V20.394
			c0.823-0.798,2.722-1.394,4-1.394c2.206,0,4,1.794,4,4s-1.794,4-4,4c-0.552,0-1,0.448-1,1s0.448,1,1,1c3.309,0,6-2.691,6-6
			s-2.691-6-6-6c-1.207,0-2.746,0.363-4,0.999v-5.277c5.976,0.064,12.744,1.754,14.686,5.451
			C46.264,19.112,46.147,20.711,45.464,22.344z"/>
	</g>
</g>
<g>
</g>
<g>
</g>
<g>
</g>
<g>
</g>
<g>
</g>
<g>
</g>
<g>
</g>
<g>
</g>
<g>
</g>
<g>
</g>
<g>
</g>
<g>
</g>
<g>
</g>
<g>
</g>
<g>
</g>
</svg>
