<svg height="512pt" viewBox="0 -68 512 511" width="512pt" xmlns="http://www.w3.org/2000/svg"><path d="m504.5 130.5h-22.9375c-1.03125-2.910156-3.796875-5-7.0625-5h-10.5c-4.140625 0-7.5 3.355469-7.5 7.5s3.359375 7.5 7.5 7.5h3v81.511719h-25.332031c-4.144531 0-7.5 3.355469-7.5 7.5s3.355469 7.5 7.5 7.5h25.332031v18.488281h-45v-115h10.125c4.140625 0 7.5-3.355469 7.5-7.5s-3.359375-7.5-7.5-7.5h-17.625c-4.140625 0-7.5 3.355469-7.5 7.5v5.480469c-2.269531-1.878907-4.605469-3.761719-6.996094-5.675781-2.761718-2.214844-5.621094-4.503907-8.472656-6.886719-18.246094-15.214844-34.746094-21.417969-56.953125-21.417969-.113281 0-.226563.003906-.34375.007812l-35.824219 1.644532c-11.613281.09375-21.488281 9.027344-22.527344 20.394531-.019531.199219-.035156.402344-.046874.605469h-4.457032c-5.925781 0-11.3125 2.207031-15.378906 5.832031-4.066406-3.625-9.453125-5.832031-15.378906-5.832031h-4.453125c-.015625-.195313-.03125-.390625-.050781-.582032-1.039063-11.390624-10.914063-20.324218-22.527344-20.417968l-35.824219-1.644532c-.117187-.003906-.230469-.007812-.34375-.007812-22.207031 0-38.707031 6.203125-56.957031 21.421875-2.851563 2.378906-5.707032 4.667969-8.472656 6.882813-2.386719 1.917968-4.726563 3.796874-6.992188 5.675781v-5.480469c0-4.140625-3.359375-7.5-7.5-7.5h-60c-3.265625 0-6.035156 2.089844-7.066406 5h-22.933594c-4.140625 0-7.5 3.359375-7.5 7.5v120c0 4.144531 3.359375 7.5 7.5 7.5h22.9375c1.03125 2.910156 3.796875 5 7.0625 5h60c4.140625 0 7.5-3.355469 7.5-7.5v-1.855469c2.597656.664063 5.277344 1.007813 7.980469 1.007813h105.359375c12.675781 0 22.921875-10.328125 22.730468-22.910156-.050781-3.179688-.6875-6.113282-1.855468-8.75 8.296875-3.351563 14.15625-11.433594 14.15625-20.851563-.003906-3.652344-.800782-6.996094-2.3125-9.945313 1.796875-.902343 3.457031-2.035156 4.941406-3.351562 1.484375 1.316406 3.144531 2.449219 4.941406 3.351562-1.511718 2.949219-2.308594 6.300782-2.3125 9.953126 0 9.410156 5.859375 17.488281 14.15625 20.84375-1.171875 2.636718-1.804687 5.574218-1.855468 8.75-.195313 12.574218 10.042968 22.90625 22.730468 22.90625h58.714844c4.140625 0 7.5-3.355469 7.5-7.5 0-4.140626-3.359375-7.5-7.5-7.5h-58.714844c-4.285156 0-7.796875-3.464844-7.730468-7.667969.023437-1.484375 1.257812-7.328125 7.03125-7.328125h4.824218c4.140625 0 7.5-3.359375 7.5-7.5 0-4.144532-3.359375-7.5-7.5-7.5l-16.445312-.003906c-4.25 0-7.710938-3.363282-7.710938-7.488282 0-2.703125 2.789063-7.507812 7.324219-7.507812h11.1875c4.140625 0 7.5-3.359375 7.5-7.5 0-4.144532-3.359375-7.5-7.5-7.5l-20.761719-.003906c-4.171875 0-7.707031-3.210938-7.875-7.15625-.152344-3.554688 3.121094-8.285157 7.386719-8.285157h16.027344c4.140625 0 7.5-3.355469 7.5-7.5s-3.359375-7.5-7.5-7.5h-18.496094c-3.023437-1.101562-5.058594-4.097656-4.917969-7.394531.171875-3.949219 3.707032-7.164062 7.878906-7.164062.097657 0 28.972657.003906 28.867188.003906 4.144531 0 7.5-3.359375 7.5-7.5 0-4.144532-3.355469-7.5-7.5-7.5h-9.308594c.707032-3.421875 3.921875-6.003906 7.660156-6.003906.117188 0 .230469 0 .34375-.007813l35.804688-1.640625c18.496094.03125 31.738281 5.070312 47.175781 17.9375 2.960938 2.472656 5.875 4.8125 8.695313 7.070312 6.097656 4.886719 11.894531 9.539063 16.378906 14.179688v86.519531c-2.445312 1.269531-5.152344 1.945313-7.980469 1.945313h-14.894531c-4.144531 0-7.5 3.355468-7.5 7.5 0 4.140625 3.355469 7.5 7.5 7.5h14.894531c2.699219 0 5.382813-.347656 7.980469-1.007813v1.855469c0 4.144531 3.355469 7.5 7.5 7.5h60c3.261719 0 6.03125-2.089844 7.0625-5h22.9375c4.140625 0 7.5-3.355469 7.5-7.5v-120c0-4.144531-3.359375-7.5-7.5-7.5zm-489.5 15h15v105h-15zm225.621094 41.648438-20.761719.003906c-4.140625 0-7.5 3.355468-7.5 7.5 0 4.140625 3.359375 7.5 7.5 7.5h11.199219c4.628906 0 7.3125 4.066406 7.3125 7.496094 0 4.136718-3.457032 7.5-7.710938 7.5l-16.441406.003906c-4.144531 0-7.5 3.355468-7.5 7.5 0 4.140625 3.355469 7.5 7.5 7.5h4.824219c5.457031 0 7.007812 5.84375 7.027343 7.324218.066407 4.222657-3.457031 7.671876-7.730468 7.671876h-105.359375c-2.828125 0-5.535157-.671876-7.980469-1.945313v-49.953125c0-4.144531-3.359375-7.5-7.5-7.5s-7.5 3.355469-7.5 7.5v60.25h-45v-18.488281h25.332031c4.144531 0 7.5-3.355469 7.5-7.5s-3.355469-7.5-7.5-7.5h-25.332031v-81.511719h45v22.875c0 4.144531 3.359375 7.5 7.5 7.5s7.5-3.355469 7.5-7.5v-4.6875c4.480469-4.640625 10.28125-9.292969 16.378906-14.179688 2.816406-2.261718 5.734375-4.597656 8.691406-7.066406 15.441407-12.871094 28.683594-17.910156 47.179688-17.941406l35.804688 1.644531c.117187.003907.230468.007813.34375.007813 3.730468 0 6.941406 2.570312 7.660156 6h-9.308594c-4.144531 0-7.5 3.355468-7.5 7.5 0 4.144531 3.355469 7.5 7.5 7.5h28.867188c4.171874 0 7.707031 3.210937 7.878906 7.15625.140625 3.296875-1.886719 6.285156-4.929688 7.398437h-18.484375c-4.140625 0-7.5 3.355469-7.5 7.5s3.359375 7.5 7.5 7.5h16.027344c4.734375 0 7.535156 4.730469 7.386719 8.277344-.167969 3.953125-3.703125 7.164063-7.875 7.164063zm256.378906 63.351562h-15v-105h15zm0 0"/><path d="m256 45.5c4.140625 0 7.5-3.355469 7.5-7.5v-30c0-4.144531-3.359375-7.5-7.5-7.5s-7.5 3.355469-7.5 7.5v30c0 4.144531 3.359375 7.5 7.5 7.5zm0 0"/><path d="m256 329.5c-4.140625 0-7.5 3.355469-7.5 7.5v30c0 4.144531 3.359375 7.5 7.5 7.5s7.5-3.355469 7.5-7.5v-30c0-4.144531-3.359375-7.5-7.5-7.5zm0 0"/><path d="m175.039062 60.800781c1.390626 2.40625 3.910157 3.75 6.503907 3.75 1.269531 0 2.5625-.324219 3.742187-1.003906 3.585938-2.074219 4.816406-6.660156 2.746094-10.246094l-15-25.980469c-2.070312-3.589843-6.660156-4.816406-10.246094-2.746093-3.585937 2.070312-4.816406 6.65625-2.746094 10.246093zm0 0"/><path d="m337.53125 312.242188c-2.070312-3.589844-6.660156-4.816407-10.246094-2.746094-3.585937 2.070312-4.816406 6.65625-2.746094 10.246094l15 25.980468c1.390626 2.40625 3.910157 3.75 6.503907 3.75 1.269531 0 2.5625-.324218 3.742187-1.007812 3.585938-2.070313 4.816406-6.65625 2.746094-10.242188zm0 0"/><path d="m182.367188 307.726562c-3.589844-2.070312-8.175782-.84375-10.246094 2.746094l-15 25.976563c-2.070313 3.589843-.84375 8.175781 2.746094 10.246093 1.179687.683594 2.46875 1.007813 3.742187 1.007813 2.589844 0 5.113281-1.347656 6.5-3.753906l15-25.976563c2.074219-3.589844.84375-8.175781-2.742187-10.246094zm0 0"/><path d="m324.367188 61.773438c1.179687.683593 2.46875 1.007812 3.742187 1.007812 2.589844 0 5.113281-1.347656 6.5-3.753906l15-25.976563c2.074219-3.589843.84375-8.175781-2.742187-10.246093-3.589844-2.070313-8.175782-.84375-10.246094 2.746093l-15 25.976563c-2.070313 3.589844-.84375 8.175781 2.746094 10.246094zm0 0"/></svg>