<?xml version="1.0"?>
<svg xmlns="http://www.w3.org/2000/svg" height="512px" viewBox="-12 0 431 432" width="512px" class=""><g><path d="m8.5 8h320v416h-320zm0 0" fill="#ebebeb" data-original="#EBEBEB" class="active-path" style="fill:#FFFFFF" data-old_color="#ffffff"/><path d="m104.5 392h128v32h-128zm0 0" fill="#fbb540" data-original="#FBB540" class=""/><path d="m96.5 360h128v32h-128zm0 0" fill="#ea9d2d" data-original="#EA9D2D" class=""/><path d="m104.5 328h128v32h-128zm0 0" fill="#fbb540" data-original="#FBB540" class=""/><path d="m104.5 352h128v8h-128zm0 0" fill="#eeac3d" data-original="#EEAC3D"/><path d="m96.5 384h128v8h-128zm0 0" fill="#e0962b" data-original="#E0962B" class=""/><path d="m104.5 416h128v8h-128zm0 0" fill="#eeac3d" data-original="#EEAC3D"/><path d="m296.5 32h-40v16h20.527344l-68.527344 67.777344-42.398438-41.496094c-2.976562-2.910156-7.6875-3.054688-10.832031-.328125l-120 104 10.476563 12.09375 114.402344-99.199219 42.75 41.871094c3.113281 3.050781 8.089843 3.050781 11.203124 0l74.398438-73.519531v20.800781h16v-40c0-4.417969-3.582031-8-8-8zm0 0" fill="#f55648" data-original="#F55648"/><path d="m152.5 120h16v48h-16zm0 0" fill="#6cbae5" data-original="#6CBAE5"/><path d="m200.5 152h16v32h-16zm0 0" fill="#ffb1b5" data-original="#FFB1B5"/><path d="m104.5 152h16v40h-16zm0 0" fill="#aae5c8" data-original="#AAE5C8" class="" style="fill:#A1DDF1" data-old_color="#a1ddf1"/><path d="m56.5 192h16v40h-16zm0 0" fill="#95bdc1" data-original="#95BDC1"/><path d="m64.5 400h-24c-4.417969 0-8-3.582031-8-8v-24h16v16h16zm0 0" fill="#cbcbcb" data-original="#CBCBCB"/><path d="m32.5 48h16v16h-16zm0 0" fill="#aae5c8" data-original="#AAE5C8" class="" style="fill:#A1DDF1" data-old_color="#a1ddf1"/><path d="m64.5 48h16v16h-16zm0 0" fill="#6cbae5" data-original="#6CBAE5"/><path d="m96.5 48h16v16h-16zm0 0" fill="#ffb1b5" data-original="#FFB1B5"/><g fill="#cbcbcb"><path d="m40.5 248h72v16h-72zm0 0" data-original="#000000" class=""/><path d="m288.5 112h16v72h-16zm0 0" data-original="#000000" class=""/><path d="m40.5 280h72v16h-72zm0 0" data-original="#000000" class=""/><path d="m40.5 312h40v16h-40zm0 0" data-original="#000000" class=""/></g><path d="m232.5 264c0 35.347656-28.652344 64-64 64s-64-28.652344-64-64 28.652344-64 64-64 64 28.652344 64 64zm0 0" fill="#fbb540" data-original="#FBB540" class=""/><path d="m181.621094 262.59375-17.921875-10.875c-.59375-.292969-.996094-.875-1.0625-1.535156 0-.800782.800781-1.550782 1.894531-1.894532 1.808594-.546874 3.761719-.316406 5.394531.632813l8.335938 5.0625c3.773437 2.292969 8.695312 1.09375 10.992187-2.679687 2.292969-3.777344 1.09375-8.699219-2.683594-10.992188l-8.34375-5.074219c-.542968-.328125-1.140624-.511719-1.703124-.796875v-10.441406h-16.023438v8.855469c-.214844.066406-.433594.066406-.648438.128906-7.738281 2.164063-13.128906 9.164063-13.238281 17.199219.050781 6.261718 3.394531 12.035156 8.796875 15.199218l17.890625 10.898438c.59375.292969.996094.875 1.0625 1.535156 0 .800782-.800781 1.550782-1.894531 1.894532-1.808594.554687-3.761719.324218-5.394531-.632813l-8.335938-5.0625c-3.773437-2.292969-8.695312-1.09375-10.992187 2.679687-2.292969 3.777344-1.09375 8.699219 2.683594 10.992188l8.34375 5.074219c.535156.316406 1.140624.453125 1.703124.726562v10.511719h16v-8.800781c.214844-.054688.429688-.078125.648438-.144531 7.738281-2.160157 13.128906-9.164063 13.238281-17.199219-.019531-6.273438-3.339843-12.074219-8.742187-15.261719zm0 0" fill="#ea9d2d" data-original="#EA9D2D" class=""/><path d="m385.667969 424h-194.335938c-8.191406 0-14.832031-6.640625-14.832031-14.832031 0-5.617188 3.175781-10.753907 8.199219-13.265625l7.800781-3.902344v-80c0-53.019531 42.980469-96 96-96s96 42.980469 96 96v80l7.800781 3.902344c5.023438 2.511718 8.199219 7.648437 8.199219 13.265625 0 8.191406-6.640625 14.832031-14.832031 14.832031zm0 0" fill="#aae5c8" data-original="#AAE5C8" class="" style="fill:#A1DDF1" data-old_color="#a1ddf1"/><path d="m304.5 224h-32l-16-48c21.007812 5.257812 42.992188 5.257812 64 0zm0 0" fill="#aae5c8" data-original="#AAE5C8" class="" style="fill:#A1DDF1" data-old_color="#a1ddf1"/><path d="m288.5 224c-11.761719-.015625-23.359375-2.753906-33.886719-8l-25.6875-12.800781c-3.957031-1.972657-5.5625-6.78125-3.585937-10.734375 1.976562-3.957032 6.78125-5.558594 10.734375-3.585938l25.691406 12.847656c16.867187 8.261719 36.601563 8.261719 53.46875 0l33.691406-16.847656c3.953125-1.972656 8.757813-.371094 10.734375 3.585938 1.976563 3.953125.371094 8.761718-3.585937 10.734375l-33.6875 16.800781c-10.527344 5.246094-22.125 7.984375-33.886719 8zm0 0" fill="#8dc79d" data-original="#8DC79D" class="" style="fill:#8DC79D"/><path d="m308.429688 323.671875-30.976563-20.65625c-3.53125-2.351563-5.414063-6.511719-4.851563-10.714844s3.46875-7.722656 7.492188-9.070312c4.566406-1.542969 9.59375-.871094 13.597656 1.816406l14.402344 9.601563c3.675781 2.453124 8.640625 1.460937 11.09375-2.214844 2.453125-3.675782 1.460938-8.644532-2.214844-11.097656l-14.402344-9.601563c-1.902343-1.25-3.941406-2.285156-6.070312-3.09375v-12.640625h-16v10.902344c-1.851562.226562-3.679688.609375-5.464844 1.152344-9.824218 3.273437-16.925781 11.855468-18.300781 22.121093-1.375 10.261719 3.21875 20.410157 11.835937 26.152344l30.976563 20.65625c3.53125 2.351563 5.414063 6.511719 4.851563 10.714844s-3.46875 7.722656-7.492188 9.070312c-4.566406 1.535157-9.59375.867188-13.597656-1.816406l-14.402344-9.601563c-3.675781-2.453124-8.640625-1.460937-11.09375 2.214844-2.453125 3.675782-1.460938 8.644532 2.214844 11.097656l14.402344 9.601563c1.894531 1.230469 3.914062 2.253906 6.023437 3.0625v12.671875h16v-10.785156c1.855469-.261719 3.683594-.6875 5.460937-1.269532 9.828126-3.273437 16.929688-11.855468 18.300782-22.121093 1.375-10.261719-3.21875-20.410157-11.835938-26.152344zm0 0" fill="#8dc79d" data-original="#8DC79D" class="" style="fill:#8DC79D"/><path d="m352.5 400h-24v-16h16v-16h16v24c0 4.417969-3.582031 8-8 8zm0 0" fill="#8dc79d" data-original="#8DC79D" class="" style="fill:#8DC79D"/><path d="m308.429688 323.671875-30.976563-20.65625c-3.53125-2.351563-5.414063-6.511719-4.851563-10.714844s3.46875-7.722656 7.492188-9.070312c4.566406-1.542969 9.59375-.871094 13.597656 1.816406l14.402344 9.601563c3.675781 2.453124 8.640625 1.460937 11.09375-2.214844 2.453125-3.675782 1.460938-8.644532-2.214844-11.097656l-14.402344-9.601563c-1.902343-1.25-3.941406-2.285156-6.070312-3.09375v-12.640625h-16v10.902344c-1.851562.226562-3.679688.609375-5.464844 1.152344-9.824218 3.273437-16.925781 11.855468-18.300781 22.121093-1.375 10.261719 3.21875 20.410157 11.835937 26.152344l30.976563 20.65625c3.53125 2.351563 5.414063 6.511719 4.851563 10.714844s-3.46875 7.722656-7.492188 9.070312c-4.566406 1.535157-9.59375.867188-13.597656-1.816406l-14.402344-9.601563c-3.675781-2.453124-8.640625-1.460937-11.09375 2.214844-2.453125 3.675782-1.460938 8.644532 2.214844 11.097656l14.402344 9.601563c1.894531 1.230469 3.914062 2.253906 6.023437 3.0625v12.671875h16v-10.785156c1.855469-.261719 3.683594-.6875 5.460937-1.269532 9.828126-3.273437 16.929688-11.855468 18.300782-22.121093 1.375-10.261719-3.21875-20.410157-11.835938-26.152344zm0 0" data-original="#000000" class=""/><path d="m395.875 388.742188-3.375-1.6875v-75.054688c-.046875-38.753906-21.625-74.273438-56-92.167969v-10.886719l19.574219-9.746093c3.957031-1.972657 5.5625-6.78125 3.585937-10.734375-1.976562-3.957032-6.78125-5.558594-10.734375-3.585938l-12.425781 6.175782v-183.054688c0-4.417969-3.582031-8-8-8h-320c-4.417969 0-8 3.582031-8 8v416c0 4.417969 3.582031 8 8 8h377.167969c10.589843 0 19.792969-7.28125 22.222656-17.589844 2.433594-10.304687-2.542969-20.933594-12.015625-25.667968zm-127.429688-202.230469c9.464844 1.390625 19.046876 1.804687 28.597657 1.230469 3.898437-.269532 7.738281-.683594 11.511719-1.238282l-6.640626 19.886719c-8.832031 1.96875-17.996093 1.96875-26.828124 0zm-251.945312-170.511719h304v152c-.660156-.007812-1.316406.066406-1.960938.214844-4.625 1.140625-9.3125 2.011718-14.039062 2.609375v-58.824219h-16v59.945312c-10.132812-.015624-20.230469-1.257812-30.0625-3.707031-2.832031-.703125-5.820312.191407-7.800781 2.332031-1.980469 2.140626-2.640625 5.191407-1.722657 7.957032l6.707032 20.089844-19.546875-9.777344c-3.953125-1.976563-8.757813-.371094-10.734375 3.585937-1.976563 3.953125-.371094 8.757813 3.585937 10.734375l23.125 11.558594c-7.867187 2.929688-15.351562 6.804688-22.285156 11.539062-15.308594-24.90625-44.171875-38.070312-73.015625-33.296874-28.839844 4.773437-51.925781 26.53125-58.394531 55.039062h-57.855469v16h56c.023438 5.386719.648438 10.753906 1.871094 16h-57.871094v16h63.703125c4.605469 9.300781 11.171875 17.488281 19.25 24h-18.953125c-4.417969 0-8 3.582031-8 8v24c-4.417969 0-8 3.582031-8 8v32c0 4.417969 3.582031 8 8 8v16h-80zm168 368h-80v-16h80zm0-32h-72v-16h72zm5.886719-74.183594c-.050781-6.261718-3.394531-12.035156-8.796875-15.199218l-17.890625-10.898438c-.59375-.292969-.996094-.875-1.0625-1.535156 0-.800782.800781-1.550782 1.894531-1.894532 1.808594-.546874 3.761719-.316406 5.394531.632813l8.335938 5.0625c3.773437 2.292969 8.695312 1.09375 10.992187-2.679687 2.292969-3.777344 1.09375-8.699219-2.683594-10.992188l-8.34375-5.074219c-.542968-.328125-1.140624-.511719-1.703124-.796875v-10.441406h-16.023438v8.855469c-.214844.066406-.433594.066406-.648438.128906-7.738281 2.164063-13.128906 9.164063-13.238281 17.199219.050781 6.261718 3.394531 12.035156 8.796875 15.199218l17.890625 10.898438c.59375.292969.996094.875 1.0625 1.535156 0 .800782-.800781 1.550782-1.894531 1.894532-1.808594.554687-3.761719.324218-5.394531-.632813l-8.335938-5.0625c-3.773437-2.292969-8.695312-1.09375-10.992187 2.679687-2.292969 3.777344-1.09375 8.699219 2.683594 10.992188l8.34375 5.074219c.535156.316406 1.140624.453125 1.703124.726562v10.511719h16v-8.800781c.214844-.054688.429688-.078125.648438-.144531 4.339844-1.289063 8.066406-4.105469 10.496094-7.925782-2.042969 8.132813-3.09375 16.484375-3.121094 24.871094v5.671875c-28.082031 8.441406-57.921875-6.210937-68.414062-33.597656-10.488282-27.382813 1.921874-58.222657 28.457031-70.703125 26.535156-12.484375 58.207031-2.382813 72.613281 23.15625-12.089844 11.429687-21.269531 25.585937-26.769531 41.289062zm-77.886719 122.183594h58.136719c-2.457031 4.988281-2.808594 10.75-.976563 16h-57.160156zm273.167969 16h-194.335938c-3.167969-.003906-5.917969-2.183594-6.644531-5.265625-.726562-3.085937.761719-6.261719 3.597656-7.679687l7.789063-3.894532c2.714843-1.355468 4.425781-4.128906 4.425781-7.160156v-80c0-48.601562 39.398438-88 88-88s88 39.398438 88 88v80c-.015625 3.046875 1.699219 5.839844 4.425781 7.199219l7.789063 3.898437c2.789062 1.4375 4.242187 4.589844 3.519531 7.640625-.722656 3.054688-3.429687 5.222657-6.566406 5.261719zm0 0" data-original="#000000" class=""/><path d="m45.738281 190.046875 114.402344-99.199219 42.757813 41.871094c3.113281 3.050781 8.089843 3.050781 11.203124 0l74.398438-73.519531v20.800781h16v-40c0-4.417969-3.582031-8-8-8h-40v16h20.527344l-68.527344 67.777344-42.398438-41.496094c-2.976562-2.910156-7.6875-3.054688-10.832031-.328125l-120 104zm0 0" data-original="#000000" class=""/><path d="m152.5 120h16v48h-16zm0 0" data-original="#000000" class=""/><path d="m200.5 152h16v32h-16zm0 0" data-original="#000000" class=""/><path d="m104.5 152h16v40h-16zm0 0" data-original="#000000" class=""/><path d="m56.5 192h16v40h-16zm0 0" data-original="#000000" class=""/><path d="m344.5 384h-16v16h24c4.417969 0 8-3.582031 8-8v-24h-16zm0 0" data-original="#000000" class=""/><path d="m48.5 368h-16v24c0 4.417969 3.582031 8 8 8h24v-16h-16zm0 0" data-original="#000000" class=""/><path d="m32.5 48h16v16h-16zm0 0" data-original="#000000" class=""/><path d="m64.5 48h16v16h-16zm0 0" data-original="#000000" class=""/><path d="m96.5 48h16v16h-16zm0 0" data-original="#000000" class=""/><path d="m40.5 312h40v16h-40zm0 0" data-original="#000000" class=""/></g> </svg>
