<?xml version="1.0"?>
<svg xmlns="http://www.w3.org/2000/svg" height="512px" viewBox="0 0 496 496" width="512px" class=""><g><path d="m216 216v264c0 4.398438 3.601562 8 8 8h48c4.398438 0 8-3.601562 8-8v-264zm0 0" fill="#cf9e76" data-original="#CF9E76" class=""/><path d="m304 184-8 32h-96l-8-32zm0 0" fill="#969faa" data-original="#969FAA" class=""/><path d="m320 24h32v160h-208v-160zm0 0" fill="#e6e9ed" data-original="#E6E9ED"/><path d="m400 16v176c0 4.398438-3.601562 8-8 8h-32c-4.398438 0-8-3.601562-8-8v-176c0-4.398438 3.601562-8 8-8h32c4.398438 0 8 3.601562 8 8zm0 0" fill="#ef7385" data-original="#EF7385" class="active-path" style="fill:#F5675D" data-old_color="#f5675d"/><path d="m144 184v8c0 4.398438-3.601562 8-8 8h-32c-4.398438 0-8-3.601562-8-8v-176c0-4.398438 3.601562-8 8-8h32c4.398438 0 8 3.601562 8 8zm0 0" fill="#ef7385" data-original="#EF7385" class="active-path" style="fill:#F5675D" data-old_color="#f5675d"/><path d="m424.398438 232c-.160157 0-.238282 0-.398438 0-35.359375 0-64 28.640625-64 64 0 35.199219 28.398438 63.761719 63.601562 64h.398438c35.359375 0 64-28.640625 64-64 0-35.199219-28.398438-63.761719-63.601562-64zm0 0" fill="#fcd770" data-original="#FCD770" class=""/><path d="m72.398438 360c-.160157 0-.238282 0-.398438 0-35.359375 0-64 28.640625-64 64 0 35.199219 28.398438 63.761719 63.601562 64h.398438c35.359375 0 64-28.640625 64-64 0-35.199219-28.398438-63.761719-63.601562-64zm0 0" fill="#fcd770" data-original="#FCD770" class=""/><path d="m72 400c4.40625 0 8 3.585938 8 8h16c0-10.414062-6.710938-19.214844-16-22.527344v-9.472656h-16v9.472656c-9.289062 3.3125-16 12.113282-16 22.527344 0 13.230469 10.769531 24 24 24 4.40625 0 8 3.585938 8 8s-3.59375 8-8 8-8-3.585938-8-8h-16c0 10.414062 6.710938 19.214844 16 22.527344v9.472656h16v-9.472656c9.289062-3.3125 16-12.113282 16-22.527344 0-13.230469-10.769531-24-24-24-4.40625 0-8-3.585938-8-8s3.59375-8 8-8zm0 0" data-original="#000000" class="" style="fill:#72D2EE" data-old_color="#72d2ee"/><path d="m80 352.472656v-16.472656h-16v16.472656c-35.945312 3.992188-64 34.527344-64 71.527344 0 39.703125 32.304688 72 72 72s72-32.296875 72-72c0-37-28.054688-67.535156-64-71.527344zm-8 127.527344c-30.878906 0-56-25.128906-56-56s25.121094-56 56-56 56 25.128906 56 56-25.121094 56-56 56zm0 0" data-original="#000000" class="" style="fill:#72D2EE" data-old_color="#72d2ee"/><path d="m424 272c4.40625 0 8 3.585938 8 8h16c0-10.414062-6.710938-19.214844-16-22.527344v-9.472656h-16v9.472656c-9.289062 3.3125-16 12.113282-16 22.527344 0 13.230469 10.769531 24 24 24 4.40625 0 8 3.585938 8 8s-3.59375 8-8 8-8-3.585938-8-8h-16c0 10.414062 6.710938 19.214844 16 22.527344v9.472656h16v-9.472656c9.289062-3.3125 16-12.113282 16-22.527344 0-13.230469-10.769531-24-24-24-4.40625 0-8-3.585938-8-8s3.59375-8 8-8zm0 0" data-original="#000000" class="" style="fill:#72D2EE" data-old_color="#72d2ee"/><path d="m496 296c0-39.703125-32.304688-72-72-72s-72 32.296875-72 72c0 37 28.054688 67.535156 64 71.527344v16.472656h16v-16.472656c35.945312-3.992188 64-34.527344 64-71.527344zm-72 56c-30.878906 0-56-25.128906-56-56s25.121094-56 56-56 56 25.128906 56 56-25.121094 56-56 56zm0 0" data-original="#000000" class="" style="fill:#72D2EE" data-old_color="#72d2ee"/><path d="m384.679688 464c-8.441407 0-16.65625-3.488281-22.519532-9.550781l-74.160156-76.722657v-153.726562h14.246094l8-32h33.753906c0 8.824219 7.175781 16 16 16h32c8.824219 0 16-7.175781 16-16v-176c0-8.824219-7.175781-16-16-16h-32c-8.824219 0-16 7.175781-16 16h-192c0-8.824219-7.175781-16-16-16h-32c-8.824219 0-16 7.175781-16 16v176c0 8.824219 7.175781 16 16 16h32c8.824219 0 16-7.175781 16-16h33.753906l8 32h14.246094v70.96875l-53-54.824219c-9.921875-10.265625-23.792969-16.144531-38.0625-16.144531-29.195312 0-52.9375 23.753906-52.9375 52.9375v11.0625h16v-11.0625c0-20.371094 16.566406-36.9375 36.9375-36.9375 9.957031 0 19.636719 4.113281 26.558594 11.265625l64.503906 66.726563v162.007812c0 8.824219 7.175781 16 16 16h48c8.824219 0 16-7.175781 16-16v-79.246094l62.65625 64.8125c8.863281 9.175782 21.273438 14.433594 34.023438 14.433594 26.097656 0 47.320312-21.222656 47.320312-47.320312v-.679688l-16 .679688c0 17.273437-14.046875 31.320312-31.320312 31.320312zm-24.679688-448h32l.007812 176h-32.007812zm-256 176v-176h32l.007812 176zm48-160h16v64h16v-64h128v64h16v-64h16v144h-16v-64h-16v64h-128v-64h-16v64h-16zm50.246094 160h91.507812l-4 16h-83.507812zm21.753906 32h48v137.175781l-48-49.65625zm48 256h-48v-145.457031l48 49.65625zm0 0" data-original="#000000" class="" style="fill:#72D2EE" data-old_color="#72d2ee"/><path d="m416 400h16v16h-16zm0 0" data-original="#000000" class="" style="fill:#72D2EE" data-old_color="#72d2ee"/><path d="m64 304h16v16h-16zm0 0" data-original="#000000" class="" style="fill:#72D2EE" data-old_color="#72d2ee"/></g> </svg>
