<svg height="512pt" viewBox="0 0 512 512" width="512pt" xmlns="http://www.w3.org/2000/svg"><path d="m391 135c0-74.4375-60.5625-135-135-135s-135 60.5625-135 135 60.5625 135 135 135 135-60.5625 135-135zm-31.074219-15h-44.273437c-1.257813-28.1875-6.035156-54.441406-13.789063-75.121094-.691406-1.851562-1.402343-3.613281-2.121093-5.320312 31.769531 14.617187 55.039062 44.640625 60.183593 80.441406zm-103.925781 120c-2.140625 0-9.996094-4.667969-17.773438-25.414062-6.566406-17.507813-10.664062-40.042969-11.855468-64.585938h59.257812c-1.191406 24.542969-5.289062 47.078125-11.855468 64.585938-7.777344 20.746093-15.632813 25.414062-17.773438 25.414062zm-29.628906-120c1.191406-24.542969 5.289062-47.078125 11.855468-64.585938 7.777344-20.746093 15.632813-25.414062 17.773438-25.414062s9.996094 4.667969 17.773438 25.414062c6.566406 17.507813 10.664062 40.042969 11.855468 64.585938zm-14.113282-80.441406c-.71875 1.707031-1.429687 3.46875-2.121093 5.320312-7.753907 20.679688-12.53125 46.933594-13.789063 75.121094h-44.273437c5.144531-35.800781 28.414062-65.824219 60.183593-80.441406zm-60.183593 110.441406h44.273437c1.257813 28.1875 6.035156 54.441406 13.789063 75.121094.691406 1.851562 1.402343 3.613281 2.121093 5.320312-31.769531-14.617187-55.039062-44.640625-60.183593-80.441406zm147.667969 80.441406c.71875-1.707031 1.429687-3.46875 2.121093-5.320312 7.753907-20.679688 12.53125-46.933594 13.789063-75.121094h44.273437c-5.144531 35.800781-28.414062 65.824219-60.183593 80.441406zm0 0"/><path d="m195.082031 292c-24.855469 0-45.082031 20.226562-45.082031 45.082031v20.828125l-60-66.667968v-94.242188c0-24.8125-20.1875-45-45-45s-45 20.1875-45 45v140c0 2.304688.53125 4.574219 1.550781 6.640625l79 160c2.527344 5.121094 7.742188 8.359375 13.449219 8.359375h132c3.992188 0 7.820312-1.589844 10.632812-4.421875 2.816407-2.828125 4.386719-6.664063 4.367188-10.65625l-.835938-160.089844c-.136718-24.71875-20.359374-44.832031-45.082031-44.832031zm-91.757812 190-73.324219-148.5v-136.5c0-8.269531 6.730469-15 15-15s15 6.730469 15 15v100c0 3.707031 1.371094 7.28125 3.851562 10.035156l90 100c4.152344 4.617188 10.722657 6.195313 16.523438 3.96875 5.796875-2.226562 9.625-7.792968 9.625-14.003906v-59.917969c0-8.316406 6.765625-15.082031 15.082031-15.082031 8.273438 0 15.039063 6.730469 15.082031 14.992188l.757813 145.007812zm0 0"/><path d="m467 152c-24.8125 0-45 20.1875-45 45v94.242188l-60 66.667968v-20.828125c0-24.855469-20.226562-45.082031-45.082031-45.082031-24.722657 0-44.945313 20.113281-45.082031 44.839844l-.835938 160.082031c-.019531 3.992187 1.550781 7.828125 4.367188 10.65625 2.8125 2.832031 6.640624 4.421875 10.632812 4.421875h132c5.707031 0 10.921875-3.238281 13.449219-8.359375l79-160c1.019531-2.066406 1.550781-4.335937 1.550781-6.640625v-140c0-24.8125-20.1875-45-45-45zm15 181.5-73.324219 148.5h-107.597656l.757813-145c.042968-8.273438 6.808593-15 15.082031-15 8.316406 0 15.082031 6.765625 15.082031 15.082031v59.917969c0 6.210938 3.828125 11.777344 9.625 14.003906 5.800781 2.226563 12.371094.644532 16.523438-3.96875l90-100c2.480468-2.753906 3.851562-6.328125 3.851562-10.035156v-100c0-8.269531 6.730469-15 15-15s15 6.730469 15 15zm0 0"/></svg>