<!DOCTYPE svg PUBLIC "-//W3C//DTD SVG 20010904//EN" "http://www.w3.org/TR/2001/REC-SVG-20010904/DTD/svg10.dtd">
<svg version="1.0" xmlns="http://www.w3.org/2000/svg" width="279px" height="104px" viewBox="0 0 2790 1040" preserveAspectRatio="xMidYMid meet">
<g id="layer101" fill="#f5675d" stroke="none">
 <path d="M2553 988 c31 -85 32 -77 -12 -182 -23 -54 -41 -100 -41 -102 0 -2 15 -4 33 -4 31 0 34 3 57 65 13 35 26 62 29 59 3 -3 15 -31 27 -62 19 -52 24 -57 54 -60 24 -3 31 0 28 10 -3 7 -32 75 -63 151 -56 132 -59 137 -87 137 -20 0 -29 -4 -25 -12z"/>
 <path d="M157 755 c-53 -107 -97 -200 -97 -205 0 -6 15 -10 33 -10 33 0 34 2 98 134 35 74 66 135 69 135 3 1 36 -60 73 -134 67 -135 67 -135 102 -135 19 0 35 2 35 5 0 13 -201 405 -208 405 -4 0 -51 -88 -105 -195z"/>
 <path d="M560 770 l0 -160 80 0 c89 0 123 11 139 47 17 37 13 62 -13 88 -23 23 -24 24 -5 30 50 16 42 112 -11 140 -19 10 -58 15 -110 15 l-80 0 0 -160z m148 104 c46 -32 16 -84 -49 -84 l-39 0 0 50 c0 50 0 50 33 50 18 0 43 -7 55 -16z m-10 -140 c31 -21 29 -62 -4 -74 -14 -6 -36 -10 -50 -10 -22 0 -24 4 -24 50 0 48 1 50 28 50 15 0 38 -7 50 -16z"/>
 <path d="M850 815 l0 -115 30 0 30 0 0 115 0 115 -30 0 -30 0 0 -115z"/>
 <path d="M992 918 c-7 -7 -12 -44 -12 -95 0 -76 -2 -83 -20 -83 -13 0 -20 -7 -20 -20 0 -13 7 -20 20 -20 14 0 21 -9 26 -35 5 -28 11 -35 30 -35 21 0 24 5 24 35 0 32 2 35 30 35 23 0 30 4 30 20 0 16 -7 20 -30 20 l-31 0 3 73 c3 67 4 72 24 69 25 -3 42 27 22 40 -20 12 -82 10 -96 -4z"/>
 <path d="M1171 776 c-34 -84 -61 -156 -61 -160 0 -3 15 -6 34 -6 l34 0 43 115 42 116 42 -113 41 -113 38 -3 37 -3 -14 33 c-8 18 -36 90 -63 161 -48 126 -49 127 -81 127 -31 0 -32 -1 -92 -154z"/>
 <path d="M1451 917 c-49 -29 -66 -108 -36 -167 19 -37 43 -50 95 -50 53 0 100 42 100 89 l0 31 -75 0 c-82 0 -89 7 -50 46 18 18 31 23 43 18 9 -4 29 -9 43 -11 31 -6 46 19 23 38 -22 18 -114 22 -143 6z m99 -142 c0 -38 -69 -39 -84 0 -4 12 3 15 39 15 33 0 45 -4 45 -15z"/>
 <path d="M1660 765 l0 -165 30 0 30 0 0 165 0 165 -30 0 -30 0 0 -165z"/>
 <path d="M1807 919 c-62 -36 -60 -175 2 -209 34 -17 106 -12 134 10 54 43 54 147 0 189 -28 23 -104 28 -136 10z m111 -102 c2 -37 -1 -48 -18 -60 -46 -32 -88 13 -75 81 7 40 40 57 70 37 14 -9 21 -25 23 -58z"/>
 <path d="M2057 919 c-62 -36 -60 -175 2 -209 28 -14 103 -12 124 4 27 21 11 49 -22 40 -55 -15 -74 -5 -87 44 -8 29 13 80 34 84 10 2 29 -1 44 -6 21 -8 31 -7 40 3 34 33 -85 69 -135 40z"/>
 <path d="M2240 815 l0 -115 30 0 30 0 0 115 0 115 -30 0 -30 0 0 -115z"/>
 <path d="M2382 918 c-7 -7 -12 -44 -12 -95 0 -76 -2 -83 -20 -83 -13 0 -20 -7 -20 -20 0 -13 7 -20 20 -20 14 0 21 -9 26 -35 5 -28 11 -35 30 -35 21 0 24 5 24 35 0 32 2 35 30 35 23 0 30 4 30 20 0 16 -7 20 -30 20 l-31 0 3 73 c3 67 4 72 24 69 25 -3 42 27 22 40 -20 12 -82 10 -96 -4z"/>
 <path d="M845 651 c-9 -31 5 -52 33 -49 33 4 50 31 33 52 -18 22 -58 20 -66 -3z"/>
 <path d="M2235 651 c-9 -31 5 -52 33 -49 33 4 50 31 33 52 -18 22 -58 20 -66 -3z"/>
 <path d="M210 525 l0 -55 45 0 46 0 -2 55 -2 55 -44 0 -43 0 0 -55z"/>
 <path d="M120 400 c0 -45 5 -68 20 -88 12 -17 22 -51 26 -92 9 -91 53 -170 94 -170 41 0 89 99 90 181 0 41 5 63 20 82 15 19 20 40 20 86 0 63 -10 76 -39 49 -11 -10 -14 -10 -18 0 -3 8 -29 12 -79 12 -60 0 -74 -3 -74 -16 0 -14 -2 -14 -22 0 -12 9 -26 16 -30 16 -5 0 -8 -27 -8 -60z m163 33 c-13 -2 -35 -2 -50 0 -16 2 -5 4 22 4 28 0 40 -2 28 -4z m-123 -59 c0 -21 -4 -33 -10 -29 -5 3 -10 22 -10 41 0 21 4 33 10 29 6 -3 10 -22 10 -41z m210 12 c0 -19 -4 -38 -10 -41 -6 -4 -10 10 -10 34 0 23 5 41 10 41 6 0 10 -15 10 -34z m-50 -95 c0 -66 -2 -125 -5 -133 -4 -9 -21 -12 -59 -10 -46 3 -55 7 -60 25 -8 30 -7 222 1 230 3 4 33 7 65 7 l58 0 0 -119z m-34 -172 c3 -6 -1 -18 -10 -27 -14 -14 -17 -14 -36 3 -16 14 -17 20 -8 27 18 11 46 10 54 -3z"/>
 <path d="M214 275 c-15 -23 -15 -27 0 -50 30 -46 96 -26 96 29 0 46 -69 61 -96 21z m66 -24 c0 -24 -25 -34 -40 -16 -15 18 -5 35 21 35 12 0 19 -7 19 -19z"/>
 </g>
<g id="layer102" fill="#3bb7d0" stroke="none">
 <path d="M2553 988 c31 -85 32 -77 -12 -182 -23 -54 -41 -100 -41 -102 0 -2 15 -4 33 -4 31 0 34 3 57 65 13 35 26 62 29 59 3 -3 15 -31 27 -62 19 -52 24 -57 54 -60 24 -3 31 0 28 10 -3 7 -32 75 -63 151 -56 132 -59 137 -87 137 -20 0 -29 -4 -25 -12z"/>
 <path d="M157 755 c-53 -107 -97 -200 -97 -205 0 -6 15 -10 33 -10 33 0 34 2 98 134 35 74 66 135 69 135 3 1 36 -60 73 -134 67 -135 67 -135 102 -135 19 0 35 2 35 5 0 13 -201 405 -208 405 -4 0 -51 -88 -105 -195z"/>
 <path d="M1171 776 c-34 -84 -61 -156 -61 -160 0 -3 15 -6 34 -6 l34 0 43 115 42 116 42 -113 41 -113 38 -3 37 -3 -14 33 c-8 18 -36 90 -63 161 -48 126 -49 127 -81 127 -31 0 -32 -1 -92 -154z"/>
 <path d="M1451 917 c-49 -29 -66 -108 -36 -167 19 -37 43 -50 95 -50 53 0 100 42 100 89 l0 31 -75 0 c-82 0 -89 7 -50 46 18 18 31 23 43 18 9 -4 29 -9 43 -11 31 -6 46 19 23 38 -22 18 -114 22 -143 6z m99 -142 c0 -38 -69 -39 -84 0 -4 12 3 15 39 15 33 0 45 -4 45 -15z"/>
 <path d="M1660 765 l0 -165 30 0 30 0 0 165 0 165 -30 0 -30 0 0 -165z"/>
 <path d="M1807 919 c-62 -36 -60 -175 2 -209 34 -17 106 -12 134 10 54 43 54 147 0 189 -28 23 -104 28 -136 10z m111 -102 c2 -37 -1 -48 -18 -60 -46 -32 -88 13 -75 81 7 40 40 57 70 37 14 -9 21 -25 23 -58z"/>
 <path d="M2057 919 c-62 -36 -60 -175 2 -209 28 -14 103 -12 124 4 27 21 11 49 -22 40 -55 -15 -74 -5 -87 44 -8 29 13 80 34 84 10 2 29 -1 44 -6 21 -8 31 -7 40 3 34 33 -85 69 -135 40z"/>
 <path d="M2240 815 l0 -115 30 0 30 0 0 115 0 115 -30 0 -30 0 0 -115z"/>
 <path d="M2382 918 c-7 -7 -12 -44 -12 -95 0 -76 -2 -83 -20 -83 -13 0 -20 -7 -20 -20 0 -13 7 -20 20 -20 14 0 21 -9 26 -35 5 -28 11 -35 30 -35 21 0 24 5 24 35 0 32 2 35 30 35 23 0 30 4 30 20 0 16 -7 20 -30 20 l-31 0 3 73 c3 67 4 72 24 69 25 -3 42 27 22 40 -20 12 -82 10 -96 -4z"/>
 <path d="M2235 651 c-9 -31 5 -52 33 -49 33 4 50 31 33 52 -18 22 -58 20 -66 -3z"/>
 <path d="M210 525 l0 -55 45 0 46 0 -2 55 -2 55 -44 0 -43 0 0 -55z"/>
 <path d="M120 400 c0 -45 5 -68 20 -88 12 -17 22 -51 26 -92 9 -91 53 -170 94 -170 41 0 89 99 90 181 0 41 5 63 20 82 15 19 20 40 20 86 0 63 -10 76 -39 49 -11 -10 -14 -10 -18 0 -3 8 -29 12 -79 12 -60 0 -74 -3 -74 -16 0 -14 -2 -14 -22 0 -12 9 -26 16 -30 16 -5 0 -8 -27 -8 -60z m163 33 c-13 -2 -35 -2 -50 0 -16 2 -5 4 22 4 28 0 40 -2 28 -4z m-123 -59 c0 -21 -4 -33 -10 -29 -5 3 -10 22 -10 41 0 21 4 33 10 29 6 -3 10 -22 10 -41z m210 12 c0 -19 -4 -38 -10 -41 -6 -4 -10 10 -10 34 0 23 5 41 10 41 6 0 10 -15 10 -34z m-50 -95 c0 -66 -2 -125 -5 -133 -4 -9 -21 -12 -59 -10 -46 3 -55 7 -60 25 -8 30 -7 222 1 230 3 4 33 7 65 7 l58 0 0 -119z m-34 -172 c3 -6 -1 -18 -10 -27 -14 -14 -17 -14 -36 3 -16 14 -17 20 -8 27 18 11 46 10 54 -3z"/>
 <path d="M214 275 c-15 -23 -15 -27 0 -50 30 -46 96 -26 96 29 0 46 -69 61 -96 21z m66 -24 c0 -24 -25 -34 -40 -16 -15 18 -5 35 21 35 12 0 19 -7 19 -19z"/>
 </g>
<g id="layer103" fill="#ffffff" stroke="none">
 <path d="M210 525 l0 -55 45 0 46 0 -2 55 -2 55 -44 0 -43 0 0 -55z"/>
 <path d="M120 400 c0 -45 5 -68 20 -88 12 -17 22 -51 26 -92 9 -91 53 -170 94 -170 41 0 89 99 90 181 0 41 5 63 20 82 15 19 20 40 20 86 0 63 -10 76 -39 49 -11 -10 -14 -10 -18 0 -3 8 -29 12 -79 12 -60 0 -74 -3 -74 -16 0 -14 -2 -14 -22 0 -12 9 -26 16 -30 16 -5 0 -8 -27 -8 -60z m163 33 c-13 -2 -35 -2 -50 0 -16 2 -5 4 22 4 28 0 40 -2 28 -4z m-123 -59 c0 -21 -4 -33 -10 -29 -5 3 -10 22 -10 41 0 21 4 33 10 29 6 -3 10 -22 10 -41z m210 12 c0 -19 -4 -38 -10 -41 -6 -4 -10 10 -10 34 0 23 5 41 10 41 6 0 10 -15 10 -34z m-50 -95 c0 -66 -2 -125 -5 -133 -4 -9 -21 -12 -59 -10 -46 3 -55 7 -60 25 -8 30 -7 222 1 230 3 4 33 7 65 7 l58 0 0 -119z m-34 -172 c3 -6 -1 -18 -10 -27 -14 -14 -17 -14 -36 3 -16 14 -17 20 -8 27 18 11 46 10 54 -3z"/>
 <path d="M214 275 c-15 -23 -15 -27 0 -50 30 -46 96 -26 96 29 0 46 -69 61 -96 21z m66 -24 c0 -24 -25 -34 -40 -16 -15 18 -5 35 21 35 12 0 19 -7 19 -19z"/>
 </g>

</svg>