<?xml version="1.0"?>
<svg xmlns="http://www.w3.org/2000/svg" viewBox="0 0 64 64" width="512px" height="512px" class=""><g><title>shareholder-partner-partnership-stockholder-Business</title><g id="Flat"><polygon points="25 42 28 37 42.283 36.529 39 42 25 42" style="fill:#e9937c" data-original="#E9937C"/><path d="M28,55V51l-5.667-6.3a5.25,5.25,0,0,1,.19-7.226L23,37H36v4h0a5,5,0,0,1,5,5v9Z" style="fill:#f2c09a" data-original="#F2C09A"/><path d="M7.087,16a24.993,24.993,0,0,0,49.826,0Z" style="fill:#29abe2" data-original="#29ABE2" class=""/><path d="M9.552,3a24.847,24.847,0,0,0-2.465,9H56.913a24.847,24.847,0,0,0-2.465-9Z" style="fill:#29abe2" data-original="#29ABE2" class=""/><rect x="25" y="54" width="18" height="8" style="fill:#028DDC" data-original="#0071BC" class="" data-old_color="#028ddc"/><path d="M50.275,37.793l-1.219-1.586a28.131,28.131,0,0,0,2.254-1.931l1.379,1.45A30.6,30.6,0,0,1,50.275,37.793Z" style="fill:#F0655C" data-original="#CCC" class="active-path" data-old_color="#f0655c"/><path d="M54.665,33.655l-1.511-1.31a27.793,27.793,0,0,0,6.7-15.448l1.989.206A29.774,29.774,0,0,1,54.665,33.655Z" style="fill:#F0655C" data-original="#CCC" class="active-path" data-old_color="#f0655c"/><path d="M15.448,39.024A29.93,29.93,0,0,1,2.88,21.24l1.941-.48a27.942,27.942,0,0,0,11.731,16.6Z" style="fill:#F0655C" data-original="#CCC" class="active-path" data-old_color="#f0655c"/><rect x="15" y="20" width="2" height="2" style="fill:#F2F2F2" data-original="#F2F2F2" class="" data-old_color="#f2f2f2"/><rect x="19" y="20" width="13" height="2" style="fill:#F2F2F2" data-original="#F2F2F2" class="" data-old_color="#f2f2f2"/><rect x="15" y="24" width="13" height="2" style="fill:#F2F2F2" data-original="#F2F2F2" class="" data-old_color="#f2f2f2"/><path d="M36,41V31a3,3,0,0,0-3-3h0a3,3,0,0,0-3,3V41Z" style="fill:#f2c09a" data-original="#F2C09A"/><path d="M34,28.184A2.962,2.962,0,0,0,33,28a3,3,0,0,0-3,3V41h2V31A2.99,2.99,0,0,1,34,28.184Z" style="fill:#e9937c" data-original="#E9937C"/><rect x="37.985" y="57" width="2" height="2" style="fill:#29abe2" data-original="#29ABE2" class=""/></g></g> </svg>
