<svg height="436pt" viewBox="0 -5 436.277 436" width="436pt" xmlns="http://www.w3.org/2000/svg"><path d="m430.277344 169.234375h-10.550782v-52.183594c-.03125-25.390625-20.609374-45.96875-46-46h-23.25l-69.15625-69.15625c-2.34375-2.339843-6.140624-2.339843-8.484374 0l-29.359376 29.359375-27.304687-27.300781c-2.34375-2.339844-6.140625-2.339844-8.484375 0l-67.101562 67.101563h-46.859376c-25.394531.027343-45.972656 20.605468-46 46v119.0625c-14.085937 8.054687-28.609374 15.304687-43.511718 21.71875l-.59375.257812c-2.195313.949219-3.621094 3.113281-3.621094 5.507812v52.210938c0 33.777344 16.140625 63.445312 46.675781 85.800781 14.019531 10.234375 29.574219 18.1875 46.082031 23.5625.546876.160157 1.113282.242188 1.683594.242188.550782 0 1.097656-.074219 1.628906-.226563 16.988282-5.335937 33.050782-13.269531 47.613282-23.523437 14.460937-10.222657 25.792968-21.984375 33.84375-34.972657h196.199218c25.390626-.03125 45.96875-20.609374 46-46v-52.1875h10.550782c3.3125 0 6-2.6875 6-6v-87.273437c0-3.316406-2.6875-6-6-6zm-153.203125-154.609375 56.433593 56.425781h-50.234374l-31.3125-31.3125zm-65.144531 2.050781 54.375 54.375h-108.75zm-56.292969 358.96875c-.269531-3.191406-3-5.605469-6.199219-5.488281s-5.742188 2.730469-5.777344 5.929688v5.5c0 1.429687.507813 2.808593 1.4375 3.894531-2.550781 2.113281-5.238281 4.175781-8.066406 6.1875-13.078125 9.160156-27.414062 16.386719-42.558594 21.453125-14.640625-5.085938-28.453125-12.296875-40.992187-21.40625-2.5-1.835938-4.882813-3.71875-7.15625-5.644532 1.28125-1.136718 2.015625-2.765624 2.015625-4.480468v-5.5c0-3.3125-2.6875-6-6-6s-6 2.6875-6 6v.480468c-16.160156-17.363281-24.339844-37.71875-24.339844-60.753906v-48.277344c29.691406-13.039062 57.859375-29.300781 84-48.488281 26.140625 19.1875 54.308594 35.449219 84 48.488281v48.273438c0 22.621094-8.179688 42.664062-24.363281 59.832031zm252.089843-54.957031c-.023437 18.769531-15.230468 33.980469-34 34h-189.84375c5.40625-12.242188 8.171876-25.492188 8.117188-38.875v-52.210938c0-2.394531-1.425781-4.5625-3.628906-5.511718l-.589844-.253906c-31.308594-13.472657-60.910156-30.613282-88.179688-51.058594-2.136718-1.601563-5.066406-1.601563-7.203124 0-10.539063 7.90625-21.433594 15.3125-32.675782 22.222656v-111.949219c.023438-18.769531 15.230469-33.976562 34-34h51.644532l.09375.09375.089843-.09375h132.753907l.09375.09375.089843-.09375h95.238281c18.765626.023438 33.976563 15.230469 34 34v52.183594h-66.722656c-27.328125.121094-49.414062 22.308594-49.414062 49.636719 0 27.324218 22.085937 49.511718 49.414062 49.636718h66.722656zm16.550782-64.179688h-83.273438c-20.710937-.109374-37.445312-16.925781-37.445312-37.636718 0-20.710938 16.734375-37.53125 37.445312-37.636719h83.273438zm0 0"/><path d="m320.277344 218.875c0 12.351562 10.015625 22.363281 22.367187 22.359375 12.351563 0 22.359375-10.015625 22.359375-22.367187 0-12.351563-10.015625-22.363282-22.367187-22.359376-12.34375.011719-22.351563 10.019532-22.359375 22.367188zm22.359375-10.367188c5.726562-.003906 10.367187 4.636719 10.367187 10.359376 0 5.722656-4.636718 10.367187-10.359375 10.367187-5.722656.003906-10.367187-4.636719-10.367187-10.359375.003906-5.722656 4.636718-10.359375 10.359375-10.367188zm0 0"/><path d="m96 370.085938c-3.3125 0-6 2.6875-6 6v5.5c0 3.316406 2.6875 6 6 6s6-2.683594 6-6v-5.5c0-3.3125-2.6875-6-6-6zm0 0"/><path d="m113.886719 370.085938c-3.3125 0-6 2.6875-6 6v5.5c0 3.316406 2.6875 6 6 6s6-2.683594 6-6v-5.5c0-3.3125-2.6875-6-6-6zm0 0"/><path d="m131.773438 370.085938c-3.3125 0-6 2.6875-6 6v5.5c0 3.316406 2.6875 6 6 6s6-2.683594 6-6v-5.5c0-3.3125-2.6875-6-6-6zm0 0"/><path d="m78.113281 370.085938c-3.3125 0-6 2.6875-6 6v5.5c0 3.316406 2.6875 6 6 6s6-2.683594 6-6v-5.5c0-3.3125-2.6875-6-6-6zm0 0"/><path d="m60.226562 370.085938c-3.3125 0-6 2.6875-6 6v5.5c0 3.316406 2.6875 6 6 6s6-2.683594 6-6v-5.5c0-3.3125-2.6875-6-6-6zm0 0"/><path d="m128.34375 301.828125c2.34375-2.34375 2.34375-6.140625 0-8.484375s-6.140625-2.347656-8.484375-.003906l-31.582031 31.582031-16.140625-16.132813c-2.351563-2.273437-6.09375-2.242187-8.410157.074219-2.3125 2.3125-2.347656 6.054688-.074218 8.410157l20.386718 20.375c2.34375 2.34375 6.140626 2.34375 8.484376 0zm0 0"/></svg>